<?xml version="1.0" encoding="utf-8" standalone="no"?>
<!DOCTYPE svg PUBLIC "-//W3C//DTD SVG 1.1//EN"
  "http://www.w3.org/Graphics/SVG/1.1/DTD/svg11.dtd">
<!-- Created with matplotlib (https://matplotlib.org/) -->
<svg height="360pt" version="1.1" viewBox="0 0 504 360" width="504pt" xmlns="http://www.w3.org/2000/svg" xmlns:xlink="http://www.w3.org/1999/xlink">
 <metadata>
  <rdf:RDF xmlns:cc="http://creativecommons.org/ns#" xmlns:dc="http://purl.org/dc/elements/1.1/" xmlns:rdf="http://www.w3.org/1999/02/22-rdf-syntax-ns#">
   <cc:Work>
    <dc:type rdf:resource="http://purl.org/dc/dcmitype/StillImage"/>
    <dc:date>2021-01-27T10:52:27.324133</dc:date>
    <dc:format>image/svg+xml</dc:format>
    <dc:creator>
     <cc:Agent>
      <dc:title>Matplotlib v3.3.2, https://matplotlib.org/</dc:title>
     </cc:Agent>
    </dc:creator>
   </cc:Work>
  </rdf:RDF>
 </metadata>
 <defs>
  <style type="text/css">*{stroke-linecap:butt;stroke-linejoin:round;}</style>
 </defs>
 <g id="figure_1">
  <g id="patch_1">
   <path d="M 0 360 
L 504 360 
L 504 0 
L 0 0 
z
" style="fill:#ffffff;"/>
  </g>
  <g id="axes_1">
   <g id="patch_2">
    <path d="M 63 280.8 
L 453.6 280.8 
L 453.6 43.2 
L 63 43.2 
z
" style="fill:#ffffff;"/>
   </g>
   <g id="matplotlib.axis_1">
    <g id="xtick_1">
     <g id="line2d_1">
      <path clip-path="url(#p32d96e38c7)" d="M 88.152273 280.8 
L 88.152273 43.2 
" style="fill:none;stroke:#b0b0b0;stroke-linecap:square;stroke-width:0.8;"/>
     </g>
     <g id="line2d_2">
      <defs>
       <path d="M 0 0 
L 0 3.5 
" id="m1b11e8a15c" style="stroke:#000000;stroke-width:0.8;"/>
      </defs>
      <g>
       <use style="stroke:#000000;stroke-width:0.8;" x="88.152273" xlink:href="#m1b11e8a15c" y="280.8"/>
      </g>
     </g>
     <g id="text_1">
      <!-- 03 -->
      <g transform="translate(81.789773 295.398438)scale(0.1 -0.1)">
       <defs>
        <path d="M 31.78125 66.40625 
Q 24.171875 66.40625 20.328125 58.90625 
Q 16.5 51.421875 16.5 36.375 
Q 16.5 21.390625 20.328125 13.890625 
Q 24.171875 6.390625 31.78125 6.390625 
Q 39.453125 6.390625 43.28125 13.890625 
Q 47.125 21.390625 47.125 36.375 
Q 47.125 51.421875 43.28125 58.90625 
Q 39.453125 66.40625 31.78125 66.40625 
z
M 31.78125 74.21875 
Q 44.046875 74.21875 50.515625 64.515625 
Q 56.984375 54.828125 56.984375 36.375 
Q 56.984375 17.96875 50.515625 8.265625 
Q 44.046875 -1.421875 31.78125 -1.421875 
Q 19.53125 -1.421875 13.0625 8.265625 
Q 6.59375 17.96875 6.59375 36.375 
Q 6.59375 54.828125 13.0625 64.515625 
Q 19.53125 74.21875 31.78125 74.21875 
z
" id="DejaVuSans-48"/>
        <path d="M 40.578125 39.3125 
Q 47.65625 37.796875 51.625 33 
Q 55.609375 28.21875 55.609375 21.1875 
Q 55.609375 10.40625 48.1875 4.484375 
Q 40.765625 -1.421875 27.09375 -1.421875 
Q 22.515625 -1.421875 17.65625 -0.515625 
Q 12.796875 0.390625 7.625 2.203125 
L 7.625 11.71875 
Q 11.71875 9.328125 16.59375 8.109375 
Q 21.484375 6.890625 26.8125 6.890625 
Q 36.078125 6.890625 40.9375 10.546875 
Q 45.796875 14.203125 45.796875 21.1875 
Q 45.796875 27.640625 41.28125 31.265625 
Q 36.765625 34.90625 28.71875 34.90625 
L 20.21875 34.90625 
L 20.21875 43.015625 
L 29.109375 43.015625 
Q 36.375 43.015625 40.234375 45.921875 
Q 44.09375 48.828125 44.09375 54.296875 
Q 44.09375 59.90625 40.109375 62.90625 
Q 36.140625 65.921875 28.71875 65.921875 
Q 24.65625 65.921875 20.015625 65.03125 
Q 15.375 64.15625 9.8125 62.3125 
L 9.8125 71.09375 
Q 15.4375 72.65625 20.34375 73.4375 
Q 25.25 74.21875 29.59375 74.21875 
Q 40.828125 74.21875 47.359375 69.109375 
Q 53.90625 64.015625 53.90625 55.328125 
Q 53.90625 49.265625 50.4375 45.09375 
Q 46.96875 40.921875 40.578125 39.3125 
z
" id="DejaVuSans-51"/>
       </defs>
       <use xlink:href="#DejaVuSans-48"/>
       <use x="63.623047" xlink:href="#DejaVuSans-51"/>
      </g>
     </g>
    </g>
    <g id="xtick_2">
     <g id="line2d_3">
      <path clip-path="url(#p32d96e38c7)" d="M 116.510227 280.8 
L 116.510227 43.2 
" style="fill:none;stroke:#b0b0b0;stroke-linecap:square;stroke-width:0.8;"/>
     </g>
     <g id="line2d_4">
      <g>
       <use style="stroke:#000000;stroke-width:0.8;" x="116.510227" xlink:href="#m1b11e8a15c" y="280.8"/>
      </g>
     </g>
     <g id="text_2">
      <!-- 04 -->
      <g transform="translate(110.147727 295.398438)scale(0.1 -0.1)">
       <defs>
        <path d="M 37.796875 64.3125 
L 12.890625 25.390625 
L 37.796875 25.390625 
z
M 35.203125 72.90625 
L 47.609375 72.90625 
L 47.609375 25.390625 
L 58.015625 25.390625 
L 58.015625 17.1875 
L 47.609375 17.1875 
L 47.609375 0 
L 37.796875 0 
L 37.796875 17.1875 
L 4.890625 17.1875 
L 4.890625 26.703125 
z
" id="DejaVuSans-52"/>
       </defs>
       <use xlink:href="#DejaVuSans-48"/>
       <use x="63.623047" xlink:href="#DejaVuSans-52"/>
      </g>
     </g>
    </g>
    <g id="xtick_3">
     <g id="line2d_5">
      <path clip-path="url(#p32d96e38c7)" d="M 151.032955 280.8 
L 151.032955 43.2 
" style="fill:none;stroke:#b0b0b0;stroke-linecap:square;stroke-width:0.8;"/>
     </g>
     <g id="line2d_6">
      <g>
       <use style="stroke:#000000;stroke-width:0.8;" x="151.032955" xlink:href="#m1b11e8a15c" y="280.8"/>
      </g>
     </g>
     <g id="text_3">
      <!-- 05 -->
      <g transform="translate(144.670455 295.398438)scale(0.1 -0.1)">
       <defs>
        <path d="M 10.796875 72.90625 
L 49.515625 72.90625 
L 49.515625 64.59375 
L 19.828125 64.59375 
L 19.828125 46.734375 
Q 21.96875 47.46875 24.109375 47.828125 
Q 26.265625 48.1875 28.421875 48.1875 
Q 40.625 48.1875 47.75 41.5 
Q 54.890625 34.8125 54.890625 23.390625 
Q 54.890625 11.625 47.5625 5.09375 
Q 40.234375 -1.421875 26.90625 -1.421875 
Q 22.3125 -1.421875 17.546875 -0.640625 
Q 12.796875 0.140625 7.71875 1.703125 
L 7.71875 11.625 
Q 12.109375 9.234375 16.796875 8.0625 
Q 21.484375 6.890625 26.703125 6.890625 
Q 35.15625 6.890625 40.078125 11.328125 
Q 45.015625 15.765625 45.015625 23.390625 
Q 45.015625 31 40.078125 35.4375 
Q 35.15625 39.890625 26.703125 39.890625 
Q 22.75 39.890625 18.8125 39.015625 
Q 14.890625 38.140625 10.796875 36.28125 
z
" id="DejaVuSans-53"/>
       </defs>
       <use xlink:href="#DejaVuSans-48"/>
       <use x="63.623047" xlink:href="#DejaVuSans-53"/>
      </g>
     </g>
    </g>
    <g id="xtick_4">
     <g id="line2d_7">
      <path clip-path="url(#p32d96e38c7)" d="M 186.788636 280.8 
L 186.788636 43.2 
" style="fill:none;stroke:#b0b0b0;stroke-linecap:square;stroke-width:0.8;"/>
     </g>
     <g id="line2d_8">
      <g>
       <use style="stroke:#000000;stroke-width:0.8;" x="186.788636" xlink:href="#m1b11e8a15c" y="280.8"/>
      </g>
     </g>
     <g id="text_4">
      <!-- 06 -->
      <g transform="translate(180.426136 295.398438)scale(0.1 -0.1)">
       <defs>
        <path d="M 33.015625 40.375 
Q 26.375 40.375 22.484375 35.828125 
Q 18.609375 31.296875 18.609375 23.390625 
Q 18.609375 15.53125 22.484375 10.953125 
Q 26.375 6.390625 33.015625 6.390625 
Q 39.65625 6.390625 43.53125 10.953125 
Q 47.40625 15.53125 47.40625 23.390625 
Q 47.40625 31.296875 43.53125 35.828125 
Q 39.65625 40.375 33.015625 40.375 
z
M 52.59375 71.296875 
L 52.59375 62.3125 
Q 48.875 64.0625 45.09375 64.984375 
Q 41.3125 65.921875 37.59375 65.921875 
Q 27.828125 65.921875 22.671875 59.328125 
Q 17.53125 52.734375 16.796875 39.40625 
Q 19.671875 43.65625 24.015625 45.921875 
Q 28.375 48.1875 33.59375 48.1875 
Q 44.578125 48.1875 50.953125 41.515625 
Q 57.328125 34.859375 57.328125 23.390625 
Q 57.328125 12.15625 50.6875 5.359375 
Q 44.046875 -1.421875 33.015625 -1.421875 
Q 20.359375 -1.421875 13.671875 8.265625 
Q 6.984375 17.96875 6.984375 36.375 
Q 6.984375 53.65625 15.1875 63.9375 
Q 23.390625 74.21875 37.203125 74.21875 
Q 40.921875 74.21875 44.703125 73.484375 
Q 48.484375 72.75 52.59375 71.296875 
z
" id="DejaVuSans-54"/>
       </defs>
       <use xlink:href="#DejaVuSans-48"/>
       <use x="63.623047" xlink:href="#DejaVuSans-54"/>
      </g>
     </g>
    </g>
    <g id="xtick_5">
     <g id="line2d_9">
      <path clip-path="url(#p32d96e38c7)" d="M 310.084091 280.8 
L 310.084091 43.2 
" style="fill:none;stroke:#b0b0b0;stroke-linecap:square;stroke-width:0.8;"/>
     </g>
     <g id="line2d_10">
      <g>
       <use style="stroke:#000000;stroke-width:0.8;" x="310.084091" xlink:href="#m1b11e8a15c" y="280.8"/>
      </g>
     </g>
     <g id="text_5">
      <!-- 09 -->
      <g transform="translate(303.721591 295.398438)scale(0.1 -0.1)">
       <defs>
        <path d="M 10.984375 1.515625 
L 10.984375 10.5 
Q 14.703125 8.734375 18.5 7.8125 
Q 22.3125 6.890625 25.984375 6.890625 
Q 35.75 6.890625 40.890625 13.453125 
Q 46.046875 20.015625 46.78125 33.40625 
Q 43.953125 29.203125 39.59375 26.953125 
Q 35.25 24.703125 29.984375 24.703125 
Q 19.046875 24.703125 12.671875 31.3125 
Q 6.296875 37.9375 6.296875 49.421875 
Q 6.296875 60.640625 12.9375 67.421875 
Q 19.578125 74.21875 30.609375 74.21875 
Q 43.265625 74.21875 49.921875 64.515625 
Q 56.59375 54.828125 56.59375 36.375 
Q 56.59375 19.140625 48.40625 8.859375 
Q 40.234375 -1.421875 26.421875 -1.421875 
Q 22.703125 -1.421875 18.890625 -0.6875 
Q 15.09375 0.046875 10.984375 1.515625 
z
M 30.609375 32.421875 
Q 37.25 32.421875 41.125 36.953125 
Q 45.015625 41.5 45.015625 49.421875 
Q 45.015625 57.28125 41.125 61.84375 
Q 37.25 66.40625 30.609375 66.40625 
Q 23.96875 66.40625 20.09375 61.84375 
Q 16.21875 57.28125 16.21875 49.421875 
Q 16.21875 41.5 20.09375 36.953125 
Q 23.96875 32.421875 30.609375 32.421875 
z
" id="DejaVuSans-57"/>
       </defs>
       <use xlink:href="#DejaVuSans-48"/>
       <use x="63.623047" xlink:href="#DejaVuSans-57"/>
      </g>
     </g>
    </g>
    <g id="xtick_6">
     <g id="line2d_11">
      <path clip-path="url(#p32d96e38c7)" d="M 421.05 280.8 
L 421.05 43.2 
" style="fill:none;stroke:#b0b0b0;stroke-linecap:square;stroke-width:0.8;"/>
     </g>
     <g id="line2d_12">
      <g>
       <use style="stroke:#000000;stroke-width:0.8;" x="421.05" xlink:href="#m1b11e8a15c" y="280.8"/>
      </g>
     </g>
     <g id="text_6">
      <!-- 12 -->
      <g transform="translate(414.6875 295.398438)scale(0.1 -0.1)">
       <defs>
        <path d="M 12.40625 8.296875 
L 28.515625 8.296875 
L 28.515625 63.921875 
L 10.984375 60.40625 
L 10.984375 69.390625 
L 28.421875 72.90625 
L 38.28125 72.90625 
L 38.28125 8.296875 
L 54.390625 8.296875 
L 54.390625 0 
L 12.40625 0 
z
" id="DejaVuSans-49"/>
        <path d="M 19.1875 8.296875 
L 53.609375 8.296875 
L 53.609375 0 
L 7.328125 0 
L 7.328125 8.296875 
Q 12.9375 14.109375 22.625 23.890625 
Q 32.328125 33.6875 34.8125 36.53125 
Q 39.546875 41.84375 41.421875 45.53125 
Q 43.3125 49.21875 43.3125 52.78125 
Q 43.3125 58.59375 39.234375 62.25 
Q 35.15625 65.921875 28.609375 65.921875 
Q 23.96875 65.921875 18.8125 64.3125 
Q 13.671875 62.703125 7.8125 59.421875 
L 7.8125 69.390625 
Q 13.765625 71.78125 18.9375 73 
Q 24.125 74.21875 28.421875 74.21875 
Q 39.75 74.21875 46.484375 68.546875 
Q 53.21875 62.890625 53.21875 53.421875 
Q 53.21875 48.921875 51.53125 44.890625 
Q 49.859375 40.875 45.40625 35.40625 
Q 44.1875 33.984375 37.640625 27.21875 
Q 31.109375 20.453125 19.1875 8.296875 
z
" id="DejaVuSans-50"/>
       </defs>
       <use xlink:href="#DejaVuSans-49"/>
       <use x="63.623047" xlink:href="#DejaVuSans-50"/>
      </g>
     </g>
    </g>
    <g id="text_7">
     <!-- date -->
     <g transform="translate(247.025 309.076563)scale(0.1 -0.1)">
      <defs>
       <path d="M 45.40625 46.390625 
L 45.40625 75.984375 
L 54.390625 75.984375 
L 54.390625 0 
L 45.40625 0 
L 45.40625 8.203125 
Q 42.578125 3.328125 38.25 0.953125 
Q 33.9375 -1.421875 27.875 -1.421875 
Q 17.96875 -1.421875 11.734375 6.484375 
Q 5.515625 14.40625 5.515625 27.296875 
Q 5.515625 40.1875 11.734375 48.09375 
Q 17.96875 56 27.875 56 
Q 33.9375 56 38.25 53.625 
Q 42.578125 51.265625 45.40625 46.390625 
z
M 14.796875 27.296875 
Q 14.796875 17.390625 18.875 11.75 
Q 22.953125 6.109375 30.078125 6.109375 
Q 37.203125 6.109375 41.296875 11.75 
Q 45.40625 17.390625 45.40625 27.296875 
Q 45.40625 37.203125 41.296875 42.84375 
Q 37.203125 48.484375 30.078125 48.484375 
Q 22.953125 48.484375 18.875 42.84375 
Q 14.796875 37.203125 14.796875 27.296875 
z
" id="DejaVuSans-100"/>
       <path d="M 34.28125 27.484375 
Q 23.390625 27.484375 19.1875 25 
Q 14.984375 22.515625 14.984375 16.5 
Q 14.984375 11.71875 18.140625 8.90625 
Q 21.296875 6.109375 26.703125 6.109375 
Q 34.1875 6.109375 38.703125 11.40625 
Q 43.21875 16.703125 43.21875 25.484375 
L 43.21875 27.484375 
z
M 52.203125 31.203125 
L 52.203125 0 
L 43.21875 0 
L 43.21875 8.296875 
Q 40.140625 3.328125 35.546875 0.953125 
Q 30.953125 -1.421875 24.3125 -1.421875 
Q 15.921875 -1.421875 10.953125 3.296875 
Q 6 8.015625 6 15.921875 
Q 6 25.140625 12.171875 29.828125 
Q 18.359375 34.515625 30.609375 34.515625 
L 43.21875 34.515625 
L 43.21875 35.40625 
Q 43.21875 41.609375 39.140625 45 
Q 35.0625 48.390625 27.6875 48.390625 
Q 23 48.390625 18.546875 47.265625 
Q 14.109375 46.140625 10.015625 43.890625 
L 10.015625 52.203125 
Q 14.9375 54.109375 19.578125 55.046875 
Q 24.21875 56 28.609375 56 
Q 40.484375 56 46.34375 49.84375 
Q 52.203125 43.703125 52.203125 31.203125 
z
" id="DejaVuSans-97"/>
       <path d="M 18.3125 70.21875 
L 18.3125 54.6875 
L 36.8125 54.6875 
L 36.8125 47.703125 
L 18.3125 47.703125 
L 18.3125 18.015625 
Q 18.3125 11.328125 20.140625 9.421875 
Q 21.96875 7.515625 27.59375 7.515625 
L 36.8125 7.515625 
L 36.8125 0 
L 27.59375 0 
Q 17.1875 0 13.234375 3.875 
Q 9.28125 7.765625 9.28125 18.015625 
L 9.28125 47.703125 
L 2.6875 47.703125 
L 2.6875 54.6875 
L 9.28125 54.6875 
L 9.28125 70.21875 
z
" id="DejaVuSans-116"/>
       <path d="M 56.203125 29.59375 
L 56.203125 25.203125 
L 14.890625 25.203125 
Q 15.484375 15.921875 20.484375 11.0625 
Q 25.484375 6.203125 34.421875 6.203125 
Q 39.59375 6.203125 44.453125 7.46875 
Q 49.3125 8.734375 54.109375 11.28125 
L 54.109375 2.78125 
Q 49.265625 0.734375 44.1875 -0.34375 
Q 39.109375 -1.421875 33.890625 -1.421875 
Q 20.796875 -1.421875 13.15625 6.1875 
Q 5.515625 13.8125 5.515625 26.8125 
Q 5.515625 40.234375 12.765625 48.109375 
Q 20.015625 56 32.328125 56 
Q 43.359375 56 49.78125 48.890625 
Q 56.203125 41.796875 56.203125 29.59375 
z
M 47.21875 32.234375 
Q 47.125 39.59375 43.09375 43.984375 
Q 39.0625 48.390625 32.421875 48.390625 
Q 24.90625 48.390625 20.390625 44.140625 
Q 15.875 39.890625 15.1875 32.171875 
z
" id="DejaVuSans-101"/>
      </defs>
      <use xlink:href="#DejaVuSans-100"/>
      <use x="63.476562" xlink:href="#DejaVuSans-97"/>
      <use x="124.755859" xlink:href="#DejaVuSans-116"/>
      <use x="163.964844" xlink:href="#DejaVuSans-101"/>
     </g>
    </g>
   </g>
   <g id="matplotlib.axis_2">
    <g id="ytick_1">
     <g id="line2d_13">
      <defs>
       <path d="M 0 0 
L -3.5 0 
" id="m1a1c3362a8" style="stroke:#000000;stroke-width:0.8;"/>
      </defs>
      <g>
       <use style="stroke:#000000;stroke-width:0.8;" x="63" xlink:href="#m1a1c3362a8" y="222.887394"/>
      </g>
     </g>
     <g id="text_8">
      <!-- $\mathdefault{10^{1}}$ -->
      <g transform="translate(38.4 226.686613)scale(0.1 -0.1)">
       <use transform="translate(0 0.684375)" xlink:href="#DejaVuSans-49"/>
       <use transform="translate(63.623047 0.684375)" xlink:href="#DejaVuSans-48"/>
       <use transform="translate(128.203125 38.965625)scale(0.7)" xlink:href="#DejaVuSans-49"/>
      </g>
     </g>
    </g>
    <g id="ytick_2">
     <g id="line2d_14">
      <g>
       <use style="stroke:#000000;stroke-width:0.8;" x="63" xlink:href="#m1a1c3362a8" y="133.043697"/>
      </g>
     </g>
     <g id="text_9">
      <!-- $\mathdefault{10^{2}}$ -->
      <g transform="translate(38.4 136.842916)scale(0.1 -0.1)">
       <use transform="translate(0 0.765625)" xlink:href="#DejaVuSans-49"/>
       <use transform="translate(63.623047 0.765625)" xlink:href="#DejaVuSans-48"/>
       <use transform="translate(128.203125 39.046875)scale(0.7)" xlink:href="#DejaVuSans-50"/>
      </g>
     </g>
    </g>
    <g id="ytick_3">
     <g id="line2d_15">
      <g>
       <use style="stroke:#000000;stroke-width:0.8;" x="63" xlink:href="#m1a1c3362a8" y="43.2"/>
      </g>
     </g>
     <g id="text_10">
      <!-- $\mathdefault{10^{3}}$ -->
      <g transform="translate(38.4 46.999219)scale(0.1 -0.1)">
       <use transform="translate(0 0.765625)" xlink:href="#DejaVuSans-49"/>
       <use transform="translate(63.623047 0.765625)" xlink:href="#DejaVuSans-48"/>
       <use transform="translate(128.203125 39.046875)scale(0.7)" xlink:href="#DejaVuSans-51"/>
      </g>
     </g>
    </g>
    <g id="ytick_4">
     <g id="line2d_16">
      <defs>
       <path d="M 0 0 
L -2 0 
" id="m262eda8fb8" style="stroke:#000000;stroke-width:0.6;"/>
      </defs>
      <g>
       <use style="stroke:#000000;stroke-width:0.6;" x="63" xlink:href="#m262eda8fb8" y="269.864754"/>
      </g>
     </g>
    </g>
    <g id="ytick_5">
     <g id="line2d_17">
      <g>
       <use style="stroke:#000000;stroke-width:0.6;" x="63" xlink:href="#m262eda8fb8" y="258.639796"/>
      </g>
     </g>
    </g>
    <g id="ytick_6">
     <g id="line2d_18">
      <g>
       <use style="stroke:#000000;stroke-width:0.6;" x="63" xlink:href="#m262eda8fb8" y="249.933042"/>
      </g>
     </g>
    </g>
    <g id="ytick_7">
     <g id="line2d_19">
      <g>
       <use style="stroke:#000000;stroke-width:0.6;" x="63" xlink:href="#m262eda8fb8" y="242.819106"/>
      </g>
     </g>
    </g>
    <g id="ytick_8">
     <g id="line2d_20">
      <g>
       <use style="stroke:#000000;stroke-width:0.6;" x="63" xlink:href="#m262eda8fb8" y="236.804359"/>
      </g>
     </g>
    </g>
    <g id="ytick_9">
     <g id="line2d_21">
      <g>
       <use style="stroke:#000000;stroke-width:0.6;" x="63" xlink:href="#m262eda8fb8" y="231.594148"/>
      </g>
     </g>
    </g>
    <g id="ytick_10">
     <g id="line2d_22">
      <g>
       <use style="stroke:#000000;stroke-width:0.6;" x="63" xlink:href="#m262eda8fb8" y="226.998417"/>
      </g>
     </g>
    </g>
    <g id="ytick_11">
     <g id="line2d_23">
      <g>
       <use style="stroke:#000000;stroke-width:0.6;" x="63" xlink:href="#m262eda8fb8" y="195.841747"/>
      </g>
     </g>
    </g>
    <g id="ytick_12">
     <g id="line2d_24">
      <g>
       <use style="stroke:#000000;stroke-width:0.6;" x="63" xlink:href="#m262eda8fb8" y="180.021057"/>
      </g>
     </g>
    </g>
    <g id="ytick_13">
     <g id="line2d_25">
      <g>
       <use style="stroke:#000000;stroke-width:0.6;" x="63" xlink:href="#m262eda8fb8" y="168.796099"/>
      </g>
     </g>
    </g>
    <g id="ytick_14">
     <g id="line2d_26">
      <g>
       <use style="stroke:#000000;stroke-width:0.6;" x="63" xlink:href="#m262eda8fb8" y="160.089345"/>
      </g>
     </g>
    </g>
    <g id="ytick_15">
     <g id="line2d_27">
      <g>
       <use style="stroke:#000000;stroke-width:0.6;" x="63" xlink:href="#m262eda8fb8" y="152.975409"/>
      </g>
     </g>
    </g>
    <g id="ytick_16">
     <g id="line2d_28">
      <g>
       <use style="stroke:#000000;stroke-width:0.6;" x="63" xlink:href="#m262eda8fb8" y="146.960662"/>
      </g>
     </g>
    </g>
    <g id="ytick_17">
     <g id="line2d_29">
      <g>
       <use style="stroke:#000000;stroke-width:0.6;" x="63" xlink:href="#m262eda8fb8" y="141.750451"/>
      </g>
     </g>
    </g>
    <g id="ytick_18">
     <g id="line2d_30">
      <g>
       <use style="stroke:#000000;stroke-width:0.6;" x="63" xlink:href="#m262eda8fb8" y="137.154719"/>
      </g>
     </g>
    </g>
    <g id="ytick_19">
     <g id="line2d_31">
      <g>
       <use style="stroke:#000000;stroke-width:0.6;" x="63" xlink:href="#m262eda8fb8" y="105.998049"/>
      </g>
     </g>
    </g>
    <g id="ytick_20">
     <g id="line2d_32">
      <g>
       <use style="stroke:#000000;stroke-width:0.6;" x="63" xlink:href="#m262eda8fb8" y="90.17736"/>
      </g>
     </g>
    </g>
    <g id="ytick_21">
     <g id="line2d_33">
      <g>
       <use style="stroke:#000000;stroke-width:0.6;" x="63" xlink:href="#m262eda8fb8" y="78.952402"/>
      </g>
     </g>
    </g>
    <g id="ytick_22">
     <g id="line2d_34">
      <g>
       <use style="stroke:#000000;stroke-width:0.6;" x="63" xlink:href="#m262eda8fb8" y="70.245648"/>
      </g>
     </g>
    </g>
    <g id="ytick_23">
     <g id="line2d_35">
      <g>
       <use style="stroke:#000000;stroke-width:0.6;" x="63" xlink:href="#m262eda8fb8" y="63.131712"/>
      </g>
     </g>
    </g>
    <g id="ytick_24">
     <g id="line2d_36">
      <g>
       <use style="stroke:#000000;stroke-width:0.6;" x="63" xlink:href="#m262eda8fb8" y="57.116965"/>
      </g>
     </g>
    </g>
    <g id="ytick_25">
     <g id="line2d_37">
      <g>
       <use style="stroke:#000000;stroke-width:0.6;" x="63" xlink:href="#m262eda8fb8" y="51.906754"/>
      </g>
     </g>
    </g>
    <g id="ytick_26">
     <g id="line2d_38">
      <g>
       <use style="stroke:#000000;stroke-width:0.6;" x="63" xlink:href="#m262eda8fb8" y="47.311022"/>
      </g>
     </g>
    </g>
    <g id="text_11">
     <!-- Daily new cases per million people -->
     <g transform="translate(32.320312 248.941406)rotate(-90)scale(0.1 -0.1)">
      <defs>
       <path d="M 19.671875 64.796875 
L 19.671875 8.109375 
L 31.59375 8.109375 
Q 46.6875 8.109375 53.6875 14.9375 
Q 60.6875 21.78125 60.6875 36.53125 
Q 60.6875 51.171875 53.6875 57.984375 
Q 46.6875 64.796875 31.59375 64.796875 
z
M 9.8125 72.90625 
L 30.078125 72.90625 
Q 51.265625 72.90625 61.171875 64.09375 
Q 71.09375 55.28125 71.09375 36.53125 
Q 71.09375 17.671875 61.125 8.828125 
Q 51.171875 0 30.078125 0 
L 9.8125 0 
z
" id="DejaVuSans-68"/>
       <path d="M 9.421875 54.6875 
L 18.40625 54.6875 
L 18.40625 0 
L 9.421875 0 
z
M 9.421875 75.984375 
L 18.40625 75.984375 
L 18.40625 64.59375 
L 9.421875 64.59375 
z
" id="DejaVuSans-105"/>
       <path d="M 9.421875 75.984375 
L 18.40625 75.984375 
L 18.40625 0 
L 9.421875 0 
z
" id="DejaVuSans-108"/>
       <path d="M 32.171875 -5.078125 
Q 28.375 -14.84375 24.75 -17.8125 
Q 21.140625 -20.796875 15.09375 -20.796875 
L 7.90625 -20.796875 
L 7.90625 -13.28125 
L 13.1875 -13.28125 
Q 16.890625 -13.28125 18.9375 -11.515625 
Q 21 -9.765625 23.484375 -3.21875 
L 25.09375 0.875 
L 2.984375 54.6875 
L 12.5 54.6875 
L 29.59375 11.921875 
L 46.6875 54.6875 
L 56.203125 54.6875 
z
" id="DejaVuSans-121"/>
       <path id="DejaVuSans-32"/>
       <path d="M 54.890625 33.015625 
L 54.890625 0 
L 45.90625 0 
L 45.90625 32.71875 
Q 45.90625 40.484375 42.875 44.328125 
Q 39.84375 48.1875 33.796875 48.1875 
Q 26.515625 48.1875 22.3125 43.546875 
Q 18.109375 38.921875 18.109375 30.90625 
L 18.109375 0 
L 9.078125 0 
L 9.078125 54.6875 
L 18.109375 54.6875 
L 18.109375 46.1875 
Q 21.34375 51.125 25.703125 53.5625 
Q 30.078125 56 35.796875 56 
Q 45.21875 56 50.046875 50.171875 
Q 54.890625 44.34375 54.890625 33.015625 
z
" id="DejaVuSans-110"/>
       <path d="M 4.203125 54.6875 
L 13.1875 54.6875 
L 24.421875 12.015625 
L 35.59375 54.6875 
L 46.1875 54.6875 
L 57.421875 12.015625 
L 68.609375 54.6875 
L 77.59375 54.6875 
L 63.28125 0 
L 52.6875 0 
L 40.921875 44.828125 
L 29.109375 0 
L 18.5 0 
z
" id="DejaVuSans-119"/>
       <path d="M 48.78125 52.59375 
L 48.78125 44.1875 
Q 44.96875 46.296875 41.140625 47.34375 
Q 37.3125 48.390625 33.40625 48.390625 
Q 24.65625 48.390625 19.8125 42.84375 
Q 14.984375 37.3125 14.984375 27.296875 
Q 14.984375 17.28125 19.8125 11.734375 
Q 24.65625 6.203125 33.40625 6.203125 
Q 37.3125 6.203125 41.140625 7.25 
Q 44.96875 8.296875 48.78125 10.40625 
L 48.78125 2.09375 
Q 45.015625 0.34375 40.984375 -0.53125 
Q 36.96875 -1.421875 32.421875 -1.421875 
Q 20.0625 -1.421875 12.78125 6.34375 
Q 5.515625 14.109375 5.515625 27.296875 
Q 5.515625 40.671875 12.859375 48.328125 
Q 20.21875 56 33.015625 56 
Q 37.15625 56 41.109375 55.140625 
Q 45.0625 54.296875 48.78125 52.59375 
z
" id="DejaVuSans-99"/>
       <path d="M 44.28125 53.078125 
L 44.28125 44.578125 
Q 40.484375 46.53125 36.375 47.5 
Q 32.28125 48.484375 27.875 48.484375 
Q 21.1875 48.484375 17.84375 46.4375 
Q 14.5 44.390625 14.5 40.28125 
Q 14.5 37.15625 16.890625 35.375 
Q 19.28125 33.59375 26.515625 31.984375 
L 29.59375 31.296875 
Q 39.15625 29.25 43.1875 25.515625 
Q 47.21875 21.78125 47.21875 15.09375 
Q 47.21875 7.46875 41.1875 3.015625 
Q 35.15625 -1.421875 24.609375 -1.421875 
Q 20.21875 -1.421875 15.453125 -0.5625 
Q 10.6875 0.296875 5.421875 2 
L 5.421875 11.28125 
Q 10.40625 8.6875 15.234375 7.390625 
Q 20.0625 6.109375 24.8125 6.109375 
Q 31.15625 6.109375 34.5625 8.28125 
Q 37.984375 10.453125 37.984375 14.40625 
Q 37.984375 18.0625 35.515625 20.015625 
Q 33.0625 21.96875 24.703125 23.78125 
L 21.578125 24.515625 
Q 13.234375 26.265625 9.515625 29.90625 
Q 5.8125 33.546875 5.8125 39.890625 
Q 5.8125 47.609375 11.28125 51.796875 
Q 16.75 56 26.8125 56 
Q 31.78125 56 36.171875 55.265625 
Q 40.578125 54.546875 44.28125 53.078125 
z
" id="DejaVuSans-115"/>
       <path d="M 18.109375 8.203125 
L 18.109375 -20.796875 
L 9.078125 -20.796875 
L 9.078125 54.6875 
L 18.109375 54.6875 
L 18.109375 46.390625 
Q 20.953125 51.265625 25.265625 53.625 
Q 29.59375 56 35.59375 56 
Q 45.5625 56 51.78125 48.09375 
Q 58.015625 40.1875 58.015625 27.296875 
Q 58.015625 14.40625 51.78125 6.484375 
Q 45.5625 -1.421875 35.59375 -1.421875 
Q 29.59375 -1.421875 25.265625 0.953125 
Q 20.953125 3.328125 18.109375 8.203125 
z
M 48.6875 27.296875 
Q 48.6875 37.203125 44.609375 42.84375 
Q 40.53125 48.484375 33.40625 48.484375 
Q 26.265625 48.484375 22.1875 42.84375 
Q 18.109375 37.203125 18.109375 27.296875 
Q 18.109375 17.390625 22.1875 11.75 
Q 26.265625 6.109375 33.40625 6.109375 
Q 40.53125 6.109375 44.609375 11.75 
Q 48.6875 17.390625 48.6875 27.296875 
z
" id="DejaVuSans-112"/>
       <path d="M 41.109375 46.296875 
Q 39.59375 47.171875 37.8125 47.578125 
Q 36.03125 48 33.890625 48 
Q 26.265625 48 22.1875 43.046875 
Q 18.109375 38.09375 18.109375 28.8125 
L 18.109375 0 
L 9.078125 0 
L 9.078125 54.6875 
L 18.109375 54.6875 
L 18.109375 46.1875 
Q 20.953125 51.171875 25.484375 53.578125 
Q 30.03125 56 36.53125 56 
Q 37.453125 56 38.578125 55.875 
Q 39.703125 55.765625 41.0625 55.515625 
z
" id="DejaVuSans-114"/>
       <path d="M 52 44.1875 
Q 55.375 50.25 60.0625 53.125 
Q 64.75 56 71.09375 56 
Q 79.640625 56 84.28125 50.015625 
Q 88.921875 44.046875 88.921875 33.015625 
L 88.921875 0 
L 79.890625 0 
L 79.890625 32.71875 
Q 79.890625 40.578125 77.09375 44.375 
Q 74.3125 48.1875 68.609375 48.1875 
Q 61.625 48.1875 57.5625 43.546875 
Q 53.515625 38.921875 53.515625 30.90625 
L 53.515625 0 
L 44.484375 0 
L 44.484375 32.71875 
Q 44.484375 40.625 41.703125 44.40625 
Q 38.921875 48.1875 33.109375 48.1875 
Q 26.21875 48.1875 22.15625 43.53125 
Q 18.109375 38.875 18.109375 30.90625 
L 18.109375 0 
L 9.078125 0 
L 9.078125 54.6875 
L 18.109375 54.6875 
L 18.109375 46.1875 
Q 21.1875 51.21875 25.484375 53.609375 
Q 29.78125 56 35.6875 56 
Q 41.65625 56 45.828125 52.96875 
Q 50 49.953125 52 44.1875 
z
" id="DejaVuSans-109"/>
       <path d="M 30.609375 48.390625 
Q 23.390625 48.390625 19.1875 42.75 
Q 14.984375 37.109375 14.984375 27.296875 
Q 14.984375 17.484375 19.15625 11.84375 
Q 23.34375 6.203125 30.609375 6.203125 
Q 37.796875 6.203125 41.984375 11.859375 
Q 46.1875 17.53125 46.1875 27.296875 
Q 46.1875 37.015625 41.984375 42.703125 
Q 37.796875 48.390625 30.609375 48.390625 
z
M 30.609375 56 
Q 42.328125 56 49.015625 48.375 
Q 55.71875 40.765625 55.71875 27.296875 
Q 55.71875 13.875 49.015625 6.21875 
Q 42.328125 -1.421875 30.609375 -1.421875 
Q 18.84375 -1.421875 12.171875 6.21875 
Q 5.515625 13.875 5.515625 27.296875 
Q 5.515625 40.765625 12.171875 48.375 
Q 18.84375 56 30.609375 56 
z
" id="DejaVuSans-111"/>
      </defs>
      <use xlink:href="#DejaVuSans-68"/>
      <use x="77.001953" xlink:href="#DejaVuSans-97"/>
      <use x="138.28125" xlink:href="#DejaVuSans-105"/>
      <use x="166.064453" xlink:href="#DejaVuSans-108"/>
      <use x="193.847656" xlink:href="#DejaVuSans-121"/>
      <use x="253.027344" xlink:href="#DejaVuSans-32"/>
      <use x="284.814453" xlink:href="#DejaVuSans-110"/>
      <use x="348.193359" xlink:href="#DejaVuSans-101"/>
      <use x="409.716797" xlink:href="#DejaVuSans-119"/>
      <use x="491.503906" xlink:href="#DejaVuSans-32"/>
      <use x="523.291016" xlink:href="#DejaVuSans-99"/>
      <use x="578.271484" xlink:href="#DejaVuSans-97"/>
      <use x="639.550781" xlink:href="#DejaVuSans-115"/>
      <use x="691.650391" xlink:href="#DejaVuSans-101"/>
      <use x="753.173828" xlink:href="#DejaVuSans-115"/>
      <use x="805.273438" xlink:href="#DejaVuSans-32"/>
      <use x="837.060547" xlink:href="#DejaVuSans-112"/>
      <use x="900.537109" xlink:href="#DejaVuSans-101"/>
      <use x="962.060547" xlink:href="#DejaVuSans-114"/>
      <use x="1003.173828" xlink:href="#DejaVuSans-32"/>
      <use x="1034.960938" xlink:href="#DejaVuSans-109"/>
      <use x="1132.373047" xlink:href="#DejaVuSans-105"/>
      <use x="1160.15625" xlink:href="#DejaVuSans-108"/>
      <use x="1187.939453" xlink:href="#DejaVuSans-108"/>
      <use x="1215.722656" xlink:href="#DejaVuSans-105"/>
      <use x="1243.505859" xlink:href="#DejaVuSans-111"/>
      <use x="1304.6875" xlink:href="#DejaVuSans-110"/>
      <use x="1368.066406" xlink:href="#DejaVuSans-32"/>
      <use x="1399.853516" xlink:href="#DejaVuSans-112"/>
      <use x="1463.330078" xlink:href="#DejaVuSans-101"/>
      <use x="1524.853516" xlink:href="#DejaVuSans-111"/>
      <use x="1586.035156" xlink:href="#DejaVuSans-112"/>
      <use x="1649.511719" xlink:href="#DejaVuSans-108"/>
      <use x="1677.294922" xlink:href="#DejaVuSans-101"/>
     </g>
    </g>
   </g>
   <g id="line2d_39">
    <path clip-path="url(#p32d96e38c7)" d="M 80.754545 226.44312 
L 81.9875 218.885778 
L 83.220455 212.758504 
L 84.453409 203.646937 
L 85.686364 199.271588 
L 86.919318 191.547184 
L 88.152273 186.103061 
L 89.385227 182.834489 
L 90.618182 177.190736 
L 94.317045 162.458005 
L 96.782955 155.689719 
L 98.015909 153.762364 
L 99.248864 153.574367 
L 100.481818 152.643863 
L 101.714773 152.312552 
L 102.947727 153.098512 
L 104.180682 154.572969 
L 105.413636 153.928607 
L 106.646591 153.453706 
L 109.1125 154.134398 
L 110.345455 153.420803 
L 111.578409 151.740704 
L 112.811364 149.614664 
L 114.044318 149.869065 
L 115.277273 149.914132 
L 116.510227 149.48065 
L 117.743182 150.673626 
L 118.976136 151.46884 
L 120.209091 152.046848 
L 121.442045 152.984515 
L 122.675 153.546641 
L 123.907955 154.74271 
L 125.140909 155.550535 
L 126.373864 155.672294 
L 127.606818 156.720367 
L 128.839773 159.362605 
L 131.305682 165.639941 
L 132.538636 168.357661 
L 133.771591 173.115777 
L 135.004545 176.225406 
L 137.470455 183.874254 
L 138.703409 186.471113 
L 139.936364 190.811435 
L 141.169318 193.797066 
L 142.402273 191.604897 
L 143.635227 193.919446 
L 144.868182 194.84403 
L 147.334091 200.170143 
L 148.567045 201.840239 
L 149.8 202.568207 
L 151.032955 204.999815 
L 152.265909 205.103568 
L 153.498864 209.117416 
L 154.731818 211.939474 
L 155.964773 214.450016 
L 157.197727 217.726964 
L 158.430682 218.156632 
L 159.663636 220.77982 
L 160.896591 221.684835 
L 162.129545 222.225817 
L 164.595455 223.032031 
L 165.828409 221.526253 
L 167.061364 219.567839 
L 168.294318 218.825957 
L 169.527273 219.062253 
L 170.760227 221.214748 
L 171.993182 221.590363 
L 173.226136 223.032031 
L 174.459091 222.611341 
L 175.692045 226.191757 
L 176.925 227.272507 
L 178.157955 231.210729 
L 179.390909 230.138918 
L 180.623864 228.831322 
L 184.322727 223.000713 
L 185.555682 221.058062 
L 186.788636 218.128991 
L 188.021591 219.446186 
L 189.254545 219.446186 
L 190.4875 219.567839 
L 191.720455 222.545533 
L 192.953409 222.545533 
L 194.186364 223.326869 
L 195.419318 225.630996 
L 196.652273 227.381809 
L 197.885227 231.331658 
L 199.118182 235.732276 
L 200.351136 238.15984 
L 201.584091 243.290162 
L 202.817045 247.703667 
L 204.05 249.917438 
L 205.282955 250.238581 
L 206.515909 251.306995 
L 207.748864 251.778673 
L 208.981818 253.025646 
L 210.214773 252.123827 
L 211.447727 253.101747 
L 212.680682 254.532676 
L 213.913636 256.950332 
L 215.146591 258.212935 
L 216.379545 258.698368 
L 217.6125 258.698368 
L 218.845455 262.287524 
L 220.078409 263.461759 
L 221.311364 264.388823 
L 222.544318 266.717594 
L 223.777273 270.178158 
L 225.010227 268.259452 
L 226.243182 265.442825 
L 227.476136 262.191248 
L 228.709091 260.713132 
L 229.942045 256.100259 
L 231.175 252.672458 
L 232.407955 248.200632 
L 234.873864 242.910256 
L 236.106818 237.067225 
L 237.339773 232.188814 
L 239.805682 227.416851 
L 241.038636 224.362521 
L 242.271591 223.691605 
L 243.504545 219.062253 
L 244.7375 220.291231 
L 245.970455 218.563134 
L 247.203409 216.300502 
L 248.436364 211.424176 
L 249.669318 208.081259 
L 250.902273 202.222049 
L 252.135227 200.480911 
L 254.601136 192.222322 
L 255.834091 189.04941 
L 257.067045 184.404715 
L 258.3 180.802703 
L 259.532955 178.97646 
L 260.765909 176.362533 
L 261.998864 173.32446 
L 263.231818 174.813935 
L 264.464773 167.4359 
L 265.697727 167.648438 
L 266.930682 167.107569 
L 268.163636 165.865509 
L 269.396591 166.350818 
L 270.629545 167.798382 
L 271.8625 165.888137 
L 273.095455 171.296619 
L 274.328409 171.846488 
L 275.561364 172.807534 
L 276.794318 174.343321 
L 278.027273 174.909656 
L 279.260227 173.581654 
L 280.493182 174.710502 
L 281.726136 174.32421 
L 282.959091 174.540605 
L 284.192045 174.918784 
L 285.425 175.147693 
L 286.657955 174.842399 
L 287.890909 175.813388 
L 289.123864 174.747979 
L 290.356818 173.269723 
L 291.589773 172.422411 
L 292.822727 170.302643 
L 294.055682 168.948569 
L 295.288636 165.820291 
L 296.521591 163.679279 
L 297.754545 160.136195 
L 298.9875 157.400564 
L 300.220455 155.999086 
L 302.686364 149.82405 
L 303.919318 148.753731 
L 305.152273 146.517264 
L 306.385227 144.769737 
L 307.618182 142.803402 
L 308.851136 139.191268 
L 310.084091 136.509342 
L 311.317045 134.50991 
L 312.55 131.932046 
L 313.782955 129.020957 
L 315.015909 126.536974 
L 319.947727 118.84971 
L 321.180682 116.470488 
L 323.646591 113.533233 
L 324.879545 111.781679 
L 326.1125 110.483052 
L 327.345455 108.658018 
L 328.578409 106.510199 
L 329.811364 104.910297 
L 331.044318 102.367602 
L 333.510227 97.959362 
L 334.743182 94.695278 
L 335.976136 92.181081 
L 337.209091 89.407749 
L 338.442045 86.974088 
L 339.675 84.799324 
L 340.907955 82.171711 
L 342.140909 80.1923 
L 344.606818 76.974055 
L 347.072727 74.399961 
L 348.305682 73.566491 
L 349.538636 73.045132 
L 352.004545 71.070178 
L 353.2375 69.758857 
L 354.470455 69.417166 
L 355.703409 68.161221 
L 356.936364 66.737477 
L 358.169318 65.492702 
L 359.402273 65.863036 
L 361.868182 64.630213 
L 363.101136 63.984281 
L 364.334091 64.839248 
L 365.567045 66.019791 
L 366.8 67.534074 
L 368.032955 67.824086 
L 369.265909 69.914617 
L 370.498864 72.509883 
L 372.964773 76.987966 
L 375.430682 82.5186 
L 376.663636 84.540352 
L 379.129545 86.895212 
L 380.3625 87.647086 
L 381.595455 87.890783 
L 382.828409 87.708081 
L 384.061364 88.072126 
L 385.294318 88.875548 
L 386.527273 88.811697 
L 387.760227 88.967991 
L 388.993182 88.755098 
L 390.226136 88.741556 
L 391.459091 88.396085 
L 392.692045 88.777175 
L 393.925 88.403293 
L 395.157955 89.598605 
L 396.390909 89.732363 
L 397.623864 91.460615 
L 398.856818 91.210473 
L 400.089773 91.900185 
L 401.322727 91.677618 
L 402.555682 91.615629 
L 403.788636 90.354777 
L 405.021591 90.164616 
L 406.254545 87.970593 
L 407.4875 86.744964 
L 408.720455 84.312061 
L 409.953409 82.446521 
L 411.186364 81.102864 
L 412.419318 78.53712 
L 413.652273 76.25479 
L 414.885227 74.400656 
L 416.118182 72.270624 
L 417.351136 71.325506 
L 418.584091 71.013072 
L 419.817045 68.05897 
L 421.05 65.649084 
L 424.748864 60.618202 
L 425.981818 59.269209 
L 427.214773 57.741326 
L 428.447727 58.120041 
L 429.680682 58.735165 
L 430.913636 58.967914 
L 432.146591 60.162352 
L 434.6125 64.253404 
L 435.845455 65.55666 
L 435.845455 65.55666 
" style="fill:none;stroke:#5c7f8e;stroke-linecap:square;stroke-width:1.5;"/>
   </g>
   <g id="patch_3">
    <path d="M 63 280.8 
L 63 43.2 
" style="fill:none;stroke:#000000;stroke-linecap:square;stroke-linejoin:miter;stroke-width:0.8;"/>
   </g>
   <g id="patch_4">
    <path d="M 453.6 280.8 
L 453.6 43.2 
" style="fill:none;stroke:#000000;stroke-linecap:square;stroke-linejoin:miter;stroke-width:0.8;"/>
   </g>
   <g id="patch_5">
    <path d="M 63 280.8 
L 453.6 280.8 
" style="fill:none;stroke:#000000;stroke-linecap:square;stroke-linejoin:miter;stroke-width:0.8;"/>
   </g>
   <g id="patch_6">
    <path d="M 63 43.2 
L 453.6 43.2 
" style="fill:none;stroke:#000000;stroke-linecap:square;stroke-linejoin:miter;stroke-width:0.8;"/>
   </g>
  </g>
  <g id="axes_2">
   <g id="matplotlib.axis_3">
    <g id="ytick_27">
     <g id="line2d_40">
      <defs>
       <path d="M 0 0 
L 3.5 0 
" id="m9494f436b1" style="stroke:#000000;stroke-width:0.8;"/>
      </defs>
      <g>
       <use style="stroke:#000000;stroke-width:0.8;" x="453.6" xlink:href="#m9494f436b1" y="280.8"/>
      </g>
     </g>
     <g id="text_12">
      <!-- 0 -->
      <g transform="translate(460.6 284.599219)scale(0.1 -0.1)">
       <use xlink:href="#DejaVuSans-48"/>
      </g>
     </g>
    </g>
    <g id="ytick_28">
     <g id="line2d_41">
      <g>
       <use style="stroke:#000000;stroke-width:0.8;" x="453.6" xlink:href="#m9494f436b1" y="233.28"/>
      </g>
     </g>
     <g id="text_13">
      <!-- 20 -->
      <g transform="translate(460.6 237.079219)scale(0.1 -0.1)">
       <use xlink:href="#DejaVuSans-50"/>
       <use x="63.623047" xlink:href="#DejaVuSans-48"/>
      </g>
     </g>
    </g>
    <g id="ytick_29">
     <g id="line2d_42">
      <g>
       <use style="stroke:#000000;stroke-width:0.8;" x="453.6" xlink:href="#m9494f436b1" y="185.76"/>
      </g>
     </g>
     <g id="text_14">
      <!-- 40 -->
      <g transform="translate(460.6 189.559219)scale(0.1 -0.1)">
       <use xlink:href="#DejaVuSans-52"/>
       <use x="63.623047" xlink:href="#DejaVuSans-48"/>
      </g>
     </g>
    </g>
    <g id="ytick_30">
     <g id="line2d_43">
      <g>
       <use style="stroke:#000000;stroke-width:0.8;" x="453.6" xlink:href="#m9494f436b1" y="138.24"/>
      </g>
     </g>
     <g id="text_15">
      <!-- 60 -->
      <g transform="translate(460.6 142.039219)scale(0.1 -0.1)">
       <use xlink:href="#DejaVuSans-54"/>
       <use x="63.623047" xlink:href="#DejaVuSans-48"/>
      </g>
     </g>
    </g>
    <g id="ytick_31">
     <g id="line2d_44">
      <g>
       <use style="stroke:#000000;stroke-width:0.8;" x="453.6" xlink:href="#m9494f436b1" y="90.72"/>
      </g>
     </g>
     <g id="text_16">
      <!-- 80 -->
      <g transform="translate(460.6 94.519219)scale(0.1 -0.1)">
       <defs>
        <path d="M 31.78125 34.625 
Q 24.75 34.625 20.71875 30.859375 
Q 16.703125 27.09375 16.703125 20.515625 
Q 16.703125 13.921875 20.71875 10.15625 
Q 24.75 6.390625 31.78125 6.390625 
Q 38.8125 6.390625 42.859375 10.171875 
Q 46.921875 13.96875 46.921875 20.515625 
Q 46.921875 27.09375 42.890625 30.859375 
Q 38.875 34.625 31.78125 34.625 
z
M 21.921875 38.8125 
Q 15.578125 40.375 12.03125 44.71875 
Q 8.5 49.078125 8.5 55.328125 
Q 8.5 64.0625 14.71875 69.140625 
Q 20.953125 74.21875 31.78125 74.21875 
Q 42.671875 74.21875 48.875 69.140625 
Q 55.078125 64.0625 55.078125 55.328125 
Q 55.078125 49.078125 51.53125 44.71875 
Q 48 40.375 41.703125 38.8125 
Q 48.828125 37.15625 52.796875 32.3125 
Q 56.78125 27.484375 56.78125 20.515625 
Q 56.78125 9.90625 50.3125 4.234375 
Q 43.84375 -1.421875 31.78125 -1.421875 
Q 19.734375 -1.421875 13.25 4.234375 
Q 6.78125 9.90625 6.78125 20.515625 
Q 6.78125 27.484375 10.78125 32.3125 
Q 14.796875 37.15625 21.921875 38.8125 
z
M 18.3125 54.390625 
Q 18.3125 48.734375 21.84375 45.5625 
Q 25.390625 42.390625 31.78125 42.390625 
Q 38.140625 42.390625 41.71875 45.5625 
Q 45.3125 48.734375 45.3125 54.390625 
Q 45.3125 60.0625 41.71875 63.234375 
Q 38.140625 66.40625 31.78125 66.40625 
Q 25.390625 66.40625 21.84375 63.234375 
Q 18.3125 60.0625 18.3125 54.390625 
z
" id="DejaVuSans-56"/>
       </defs>
       <use xlink:href="#DejaVuSans-56"/>
       <use x="63.623047" xlink:href="#DejaVuSans-48"/>
      </g>
     </g>
    </g>
    <g id="ytick_32">
     <g id="line2d_45">
      <g>
       <use style="stroke:#000000;stroke-width:0.8;" x="453.6" xlink:href="#m9494f436b1" y="43.2"/>
      </g>
     </g>
     <g id="text_17">
      <!-- 100 -->
      <g transform="translate(460.6 46.999219)scale(0.1 -0.1)">
       <use xlink:href="#DejaVuSans-49"/>
       <use x="63.623047" xlink:href="#DejaVuSans-48"/>
       <use x="127.246094" xlink:href="#DejaVuSans-48"/>
      </g>
     </g>
    </g>
    <g id="text_18">
     <!-- Stringency Index -->
     <g transform="translate(491.285937 204.23125)rotate(-90)scale(0.1 -0.1)">
      <defs>
       <path d="M 53.515625 70.515625 
L 53.515625 60.890625 
Q 47.90625 63.578125 42.921875 64.890625 
Q 37.9375 66.21875 33.296875 66.21875 
Q 25.25 66.21875 20.875 63.09375 
Q 16.5 59.96875 16.5 54.203125 
Q 16.5 49.359375 19.40625 46.890625 
Q 22.3125 44.4375 30.421875 42.921875 
L 36.375 41.703125 
Q 47.40625 39.59375 52.65625 34.296875 
Q 57.90625 29 57.90625 20.125 
Q 57.90625 9.515625 50.796875 4.046875 
Q 43.703125 -1.421875 29.984375 -1.421875 
Q 24.8125 -1.421875 18.96875 -0.25 
Q 13.140625 0.921875 6.890625 3.21875 
L 6.890625 13.375 
Q 12.890625 10.015625 18.65625 8.296875 
Q 24.421875 6.59375 29.984375 6.59375 
Q 38.421875 6.59375 43.015625 9.90625 
Q 47.609375 13.234375 47.609375 19.390625 
Q 47.609375 24.75 44.3125 27.78125 
Q 41.015625 30.8125 33.5 32.328125 
L 27.484375 33.5 
Q 16.453125 35.6875 11.515625 40.375 
Q 6.59375 45.0625 6.59375 53.421875 
Q 6.59375 63.09375 13.40625 68.65625 
Q 20.21875 74.21875 32.171875 74.21875 
Q 37.3125 74.21875 42.625 73.28125 
Q 47.953125 72.359375 53.515625 70.515625 
z
" id="DejaVuSans-83"/>
       <path d="M 45.40625 27.984375 
Q 45.40625 37.75 41.375 43.109375 
Q 37.359375 48.484375 30.078125 48.484375 
Q 22.859375 48.484375 18.828125 43.109375 
Q 14.796875 37.75 14.796875 27.984375 
Q 14.796875 18.265625 18.828125 12.890625 
Q 22.859375 7.515625 30.078125 7.515625 
Q 37.359375 7.515625 41.375 12.890625 
Q 45.40625 18.265625 45.40625 27.984375 
z
M 54.390625 6.78125 
Q 54.390625 -7.171875 48.1875 -13.984375 
Q 42 -20.796875 29.203125 -20.796875 
Q 24.46875 -20.796875 20.265625 -20.09375 
Q 16.0625 -19.390625 12.109375 -17.921875 
L 12.109375 -9.1875 
Q 16.0625 -11.328125 19.921875 -12.34375 
Q 23.78125 -13.375 27.78125 -13.375 
Q 36.625 -13.375 41.015625 -8.765625 
Q 45.40625 -4.15625 45.40625 5.171875 
L 45.40625 9.625 
Q 42.625 4.78125 38.28125 2.390625 
Q 33.9375 0 27.875 0 
Q 17.828125 0 11.671875 7.65625 
Q 5.515625 15.328125 5.515625 27.984375 
Q 5.515625 40.671875 11.671875 48.328125 
Q 17.828125 56 27.875 56 
Q 33.9375 56 38.28125 53.609375 
Q 42.625 51.21875 45.40625 46.390625 
L 45.40625 54.6875 
L 54.390625 54.6875 
z
" id="DejaVuSans-103"/>
       <path d="M 9.8125 72.90625 
L 19.671875 72.90625 
L 19.671875 0 
L 9.8125 0 
z
" id="DejaVuSans-73"/>
       <path d="M 54.890625 54.6875 
L 35.109375 28.078125 
L 55.90625 0 
L 45.3125 0 
L 29.390625 21.484375 
L 13.484375 0 
L 2.875 0 
L 24.125 28.609375 
L 4.6875 54.6875 
L 15.28125 54.6875 
L 29.78125 35.203125 
L 44.28125 54.6875 
z
" id="DejaVuSans-120"/>
      </defs>
      <use xlink:href="#DejaVuSans-83"/>
      <use x="63.476562" xlink:href="#DejaVuSans-116"/>
      <use x="102.685547" xlink:href="#DejaVuSans-114"/>
      <use x="143.798828" xlink:href="#DejaVuSans-105"/>
      <use x="171.582031" xlink:href="#DejaVuSans-110"/>
      <use x="234.960938" xlink:href="#DejaVuSans-103"/>
      <use x="298.4375" xlink:href="#DejaVuSans-101"/>
      <use x="359.960938" xlink:href="#DejaVuSans-110"/>
      <use x="423.339844" xlink:href="#DejaVuSans-99"/>
      <use x="478.320312" xlink:href="#DejaVuSans-121"/>
      <use x="537.5" xlink:href="#DejaVuSans-32"/>
      <use x="569.287109" xlink:href="#DejaVuSans-73"/>
      <use x="598.779297" xlink:href="#DejaVuSans-110"/>
      <use x="662.158203" xlink:href="#DejaVuSans-100"/>
      <use x="725.634766" xlink:href="#DejaVuSans-101"/>
      <use x="785.408203" xlink:href="#DejaVuSans-120"/>
     </g>
    </g>
   </g>
   <g id="line2d_46">
    <path clip-path="url(#p32d96e38c7)" d="M 80.754545 133.39296 
L 83.220455 133.39296 
L 84.453409 113.60088 
L 88.152273 113.60088 
L 89.385227 104.80968 
L 98.015909 104.80968 
L 99.248864 91.59912 
L 148.567045 91.59912 
L 149.8 117.99648 
L 174.459091 117.99648 
L 175.692045 131.20704 
L 191.720455 131.20704 
L 192.953409 139.99824 
L 211.447727 139.99824 
L 212.680682 186.21144 
L 270.629545 186.21144 
L 271.8625 159.79032 
L 311.317045 159.79032 
L 312.55 166.3956 
L 322.413636 166.3956 
L 323.646591 133.39296 
L 366.8 133.39296 
L 368.032955 124.60176 
L 388.993182 124.60176 
L 390.226136 146.60352 
L 417.351136 146.60352 
L 418.584091 98.2044 
L 419.817045 80.59824 
L 435.845455 80.59824 
L 435.845455 80.59824 
" style="fill:none;stroke:#ea6516;stroke-linecap:square;stroke-width:1.5;"/>
   </g>
   <g id="patch_7">
    <path d="M 63 280.8 
L 63 43.2 
" style="fill:none;stroke:#000000;stroke-linecap:square;stroke-linejoin:miter;stroke-width:0.8;"/>
   </g>
   <g id="patch_8">
    <path d="M 453.6 280.8 
L 453.6 43.2 
" style="fill:none;stroke:#000000;stroke-linecap:square;stroke-linejoin:miter;stroke-width:0.8;"/>
   </g>
   <g id="patch_9">
    <path d="M 63 280.8 
L 453.6 280.8 
" style="fill:none;stroke:#000000;stroke-linecap:square;stroke-linejoin:miter;stroke-width:0.8;"/>
   </g>
   <g id="patch_10">
    <path d="M 63 43.2 
L 453.6 43.2 
" style="fill:none;stroke:#000000;stroke-linecap:square;stroke-linejoin:miter;stroke-width:0.8;"/>
   </g>
  </g>
  <g id="legend_1">
   <g id="patch_11">
    <path d="M 51.523438 339.478125 
L 452.476562 339.478125 
Q 454.476562 339.478125 454.476562 337.478125 
L 454.476562 323.8 
Q 454.476562 321.8 452.476562 321.8 
L 51.523438 321.8 
Q 49.523438 321.8 49.523438 323.8 
L 49.523438 337.478125 
Q 49.523438 339.478125 51.523438 339.478125 
z
" style="fill:#ffffff;opacity:0.8;stroke:#cccccc;stroke-linejoin:miter;"/>
   </g>
   <g id="line2d_47">
    <path d="M 53.523438 329.898438 
L 73.523438 329.898438 
" style="fill:none;stroke:#5c7f8e;stroke-linecap:square;stroke-width:1.5;"/>
   </g>
   <g id="line2d_48"/>
   <g id="text_19">
    <!-- daily new cases (left axis, log scale) -->
    <g transform="translate(81.523438 333.398438)scale(0.1 -0.1)">
     <defs>
      <path d="M 31 75.875 
Q 24.46875 64.65625 21.28125 53.65625 
Q 18.109375 42.671875 18.109375 31.390625 
Q 18.109375 20.125 21.3125 9.0625 
Q 24.515625 -2 31 -13.1875 
L 23.1875 -13.1875 
Q 15.875 -1.703125 12.234375 9.375 
Q 8.59375 20.453125 8.59375 31.390625 
Q 8.59375 42.28125 12.203125 53.3125 
Q 15.828125 64.359375 23.1875 75.875 
z
" id="DejaVuSans-40"/>
      <path d="M 37.109375 75.984375 
L 37.109375 68.5 
L 28.515625 68.5 
Q 23.6875 68.5 21.796875 66.546875 
Q 19.921875 64.59375 19.921875 59.515625 
L 19.921875 54.6875 
L 34.71875 54.6875 
L 34.71875 47.703125 
L 19.921875 47.703125 
L 19.921875 0 
L 10.890625 0 
L 10.890625 47.703125 
L 2.296875 47.703125 
L 2.296875 54.6875 
L 10.890625 54.6875 
L 10.890625 58.5 
Q 10.890625 67.625 15.140625 71.796875 
Q 19.390625 75.984375 28.609375 75.984375 
z
" id="DejaVuSans-102"/>
      <path d="M 11.71875 12.40625 
L 22.015625 12.40625 
L 22.015625 4 
L 14.015625 -11.625 
L 7.71875 -11.625 
L 11.71875 4 
z
" id="DejaVuSans-44"/>
      <path d="M 8.015625 75.875 
L 15.828125 75.875 
Q 23.140625 64.359375 26.78125 53.3125 
Q 30.421875 42.28125 30.421875 31.390625 
Q 30.421875 20.453125 26.78125 9.375 
Q 23.140625 -1.703125 15.828125 -13.1875 
L 8.015625 -13.1875 
Q 14.5 -2 17.703125 9.0625 
Q 20.90625 20.125 20.90625 31.390625 
Q 20.90625 42.671875 17.703125 53.65625 
Q 14.5 64.65625 8.015625 75.875 
z
" id="DejaVuSans-41"/>
     </defs>
     <use xlink:href="#DejaVuSans-100"/>
     <use x="63.476562" xlink:href="#DejaVuSans-97"/>
     <use x="124.755859" xlink:href="#DejaVuSans-105"/>
     <use x="152.539062" xlink:href="#DejaVuSans-108"/>
     <use x="180.322266" xlink:href="#DejaVuSans-121"/>
     <use x="239.501953" xlink:href="#DejaVuSans-32"/>
     <use x="271.289062" xlink:href="#DejaVuSans-110"/>
     <use x="334.667969" xlink:href="#DejaVuSans-101"/>
     <use x="396.191406" xlink:href="#DejaVuSans-119"/>
     <use x="477.978516" xlink:href="#DejaVuSans-32"/>
     <use x="509.765625" xlink:href="#DejaVuSans-99"/>
     <use x="564.746094" xlink:href="#DejaVuSans-97"/>
     <use x="626.025391" xlink:href="#DejaVuSans-115"/>
     <use x="678.125" xlink:href="#DejaVuSans-101"/>
     <use x="739.648438" xlink:href="#DejaVuSans-115"/>
     <use x="791.748047" xlink:href="#DejaVuSans-32"/>
     <use x="823.535156" xlink:href="#DejaVuSans-40"/>
     <use x="862.548828" xlink:href="#DejaVuSans-108"/>
     <use x="890.332031" xlink:href="#DejaVuSans-101"/>
     <use x="951.855469" xlink:href="#DejaVuSans-102"/>
     <use x="985.310547" xlink:href="#DejaVuSans-116"/>
     <use x="1024.519531" xlink:href="#DejaVuSans-32"/>
     <use x="1056.306641" xlink:href="#DejaVuSans-97"/>
     <use x="1117.585938" xlink:href="#DejaVuSans-120"/>
     <use x="1176.765625" xlink:href="#DejaVuSans-105"/>
     <use x="1204.548828" xlink:href="#DejaVuSans-115"/>
     <use x="1256.648438" xlink:href="#DejaVuSans-44"/>
     <use x="1288.435547" xlink:href="#DejaVuSans-32"/>
     <use x="1320.222656" xlink:href="#DejaVuSans-108"/>
     <use x="1348.005859" xlink:href="#DejaVuSans-111"/>
     <use x="1409.1875" xlink:href="#DejaVuSans-103"/>
     <use x="1472.664062" xlink:href="#DejaVuSans-32"/>
     <use x="1504.451172" xlink:href="#DejaVuSans-115"/>
     <use x="1556.550781" xlink:href="#DejaVuSans-99"/>
     <use x="1611.53125" xlink:href="#DejaVuSans-97"/>
     <use x="1672.810547" xlink:href="#DejaVuSans-108"/>
     <use x="1700.59375" xlink:href="#DejaVuSans-101"/>
     <use x="1762.117188" xlink:href="#DejaVuSans-41"/>
    </g>
   </g>
   <g id="line2d_49">
    <path d="M 281.635938 329.898438 
L 301.635938 329.898438 
" style="fill:none;stroke:#ea6516;stroke-linecap:square;stroke-width:1.5;"/>
   </g>
   <g id="line2d_50"/>
   <g id="text_20">
    <!-- stringency index (right axis) -->
    <g transform="translate(309.635938 333.398438)scale(0.1 -0.1)">
     <defs>
      <path d="M 54.890625 33.015625 
L 54.890625 0 
L 45.90625 0 
L 45.90625 32.71875 
Q 45.90625 40.484375 42.875 44.328125 
Q 39.84375 48.1875 33.796875 48.1875 
Q 26.515625 48.1875 22.3125 43.546875 
Q 18.109375 38.921875 18.109375 30.90625 
L 18.109375 0 
L 9.078125 0 
L 9.078125 75.984375 
L 18.109375 75.984375 
L 18.109375 46.1875 
Q 21.34375 51.125 25.703125 53.5625 
Q 30.078125 56 35.796875 56 
Q 45.21875 56 50.046875 50.171875 
Q 54.890625 44.34375 54.890625 33.015625 
z
" id="DejaVuSans-104"/>
     </defs>
     <use xlink:href="#DejaVuSans-115"/>
     <use x="52.099609" xlink:href="#DejaVuSans-116"/>
     <use x="91.308594" xlink:href="#DejaVuSans-114"/>
     <use x="132.421875" xlink:href="#DejaVuSans-105"/>
     <use x="160.205078" xlink:href="#DejaVuSans-110"/>
     <use x="223.583984" xlink:href="#DejaVuSans-103"/>
     <use x="287.060547" xlink:href="#DejaVuSans-101"/>
     <use x="348.583984" xlink:href="#DejaVuSans-110"/>
     <use x="411.962891" xlink:href="#DejaVuSans-99"/>
     <use x="466.943359" xlink:href="#DejaVuSans-121"/>
     <use x="526.123047" xlink:href="#DejaVuSans-32"/>
     <use x="557.910156" xlink:href="#DejaVuSans-105"/>
     <use x="585.693359" xlink:href="#DejaVuSans-110"/>
     <use x="649.072266" xlink:href="#DejaVuSans-100"/>
     <use x="712.548828" xlink:href="#DejaVuSans-101"/>
     <use x="772.322266" xlink:href="#DejaVuSans-120"/>
     <use x="831.501953" xlink:href="#DejaVuSans-32"/>
     <use x="863.289062" xlink:href="#DejaVuSans-40"/>
     <use x="902.302734" xlink:href="#DejaVuSans-114"/>
     <use x="943.416016" xlink:href="#DejaVuSans-105"/>
     <use x="971.199219" xlink:href="#DejaVuSans-103"/>
     <use x="1034.675781" xlink:href="#DejaVuSans-104"/>
     <use x="1098.054688" xlink:href="#DejaVuSans-116"/>
     <use x="1137.263672" xlink:href="#DejaVuSans-32"/>
     <use x="1169.050781" xlink:href="#DejaVuSans-97"/>
     <use x="1230.330078" xlink:href="#DejaVuSans-120"/>
     <use x="1289.509766" xlink:href="#DejaVuSans-105"/>
     <use x="1317.292969" xlink:href="#DejaVuSans-115"/>
     <use x="1369.392578" xlink:href="#DejaVuSans-41"/>
    </g>
   </g>
  </g>
 </g>
 <defs>
  <clipPath id="p32d96e38c7">
   <rect height="237.6" width="390.6" x="63" y="43.2"/>
  </clipPath>
 </defs>
</svg>
